<svg xmlns="http://www.w3.org/2000/svg" fill="none" viewBox="0 0 256 256">
  <g clip-path="url(#a)">
    <path fill="#1B1918" d="M245.94 78.1744c-6.445-15.2426-15.675-28.9302-27.429-40.6851-11.755-11.7547-25.443-20.9839-40.685-27.4297C162.042 3.3847 145.279 0 128 0c-17.279 0-34.0416 3.3847-49.8256 10.0596-15.2426 6.4458-28.9302 15.675-40.6851 27.4297-11.7547 11.7549-20.9839 25.4425-27.4297 40.6851C3.3847 93.9584 0 110.721 0 128c0 17.279 3.3847 34.042 10.0596 49.826 6.4458 15.242 15.675 28.93 27.4297 40.685 11.7549 11.754 25.4425 20.984 40.6851 27.429C93.9584 252.615 110.721 256 128 256c17.279 0 34.042-3.385 49.826-10.06 15.242-6.445 28.93-15.675 40.685-27.429 11.754-11.755 20.984-25.443 27.429-40.685C252.615 162.042 256 145.279 256 128c0-17.279-3.385-34.0416-10.06-49.8256Zm-71.462-60.2028c14.217 6.0134 26.989 14.6239 37.956 25.5913 10.968 10.9673 19.578 23.7389 25.592 37.9561 5.202 12.3018 8.261 25.248 9.126 38.581l-15.976-9.957c-35.359-22.0377-68.633-47.7292-98.901-76.3619l-24.783-23.4438c6.723-1.16255 13.567-1.74671 20.505-1.74671 16.122 0 31.759 3.15561 46.478 9.38101h.003Zm-92.9561 0c5.1658-2.1849 10.4461-3.989 15.8183-5.415l29.0328 27.4642c30.58 28.9274 64.187 54.8912 99.895 77.1832-63.464-16.233-123.645-42.1794-179.0053-77.1774 10.1082-9.2923 21.608-16.7031 34.2592-22.055ZM17.9716 81.5219c5.5352-13.0864 13.2753-24.9443 23.0226-35.2989 54.5591 34.729 113.7598 60.765 176.1768 77.482H8.6679c.51258-14.604 3.6339-28.776 9.3065-42.1831h-.0028Zm0 92.9561c-5.6698-13.407-8.79397-27.579-9.30654-42.183H217.371c-62.479 16.703-121.7633 42.741-176.3768 77.485-9.7473-10.358-17.4874-22.213-23.0226-35.302Zm29.294 41.498c55.3834-34.989 115.6034-60.933 179.0884-77.149l-1.077.676c-34.946 21.912-67.886 47.365-97.904 75.652l-30.0271 28.291c-5.375-1.426-10.6553-3.23-15.824-5.418-12.6483-5.349-24.1481-12.76-34.2534-22.052h-.0029Zm190.7624-41.498c-6.013 14.217-14.624 26.989-25.591 37.956-10.967 10.968-23.739 19.578-37.956 25.592-14.719 6.225-30.357 9.38-46.478 9.38-6.93 0-13.768-.584-20.486-1.743l25.749-24.263c29.612-27.902 62.107-53.01 96.578-74.624l17.311-10.852c-.868 13.323-3.924 26.258-9.124 38.551l-.003.003Z"/>
  </g>
  <defs>
    <clipPath id="a">
      <path fill="#fff" d="M0 0h256v256H0z"/>
    </clipPath>
  </defs>
</svg>